<?xml version="1.0" encoding="UTF-8" standalone="no"?><!DOCTYPE svg PUBLIC "-//W3C//DTD SVG 1.1//EN" "http://www.w3.org/Graphics/SVG/1.1/DTD/svg11.dtd"><svg width="100%" height="100%" viewBox="0 0 1000 250" version="1.1" xmlns="http://www.w3.org/2000/svg" xmlns:xlink="http://www.w3.org/1999/xlink" xml:space="preserve" style="fill-rule:evenodd;clip-rule:evenodd;stroke-linejoin:round;stroke-miterlimit:1.41421;"><g><path d="M416.162,62.275l0,127.886l-213.762,0l0,-127.886l213.762,0Zm-206.224,7.538l0,112.81l198.686,0l0,-112.81l-198.686,0Z"/><path d="M313.05,66.044l0,56.405l50.667,0l0,63.943l-7.538,0l0,-56.405l-43.129,0l0,57.966l-7.538,0l0,-121.909l7.538,0Z"/></g><path d="M444.249,173.625l0,-93.625l18.495,0l13.271,71.682l13.27,-71.682l18.495,0l0,93.625l-13.375,0l0,-73.876l-13.375,73.876l-10.031,0l-13.375,-73.876l0,73.876l-13.375,0Z" style="fill-rule:nonzero;"/><path d="M547.174,174.618c-4.075,0 -7.663,-0.54 -10.763,-1.62c-3.1,-1.08 -5.651,-2.586 -7.654,-4.519c-2.003,-1.933 -3.631,-4.363 -4.885,-7.289c-1.254,-2.925 -2.142,-6.086 -2.665,-9.482c-0.522,-3.396 -0.783,-7.236 -0.783,-11.521l0,-60.187l13.375,0l0,60.187c0,2.891 0.061,5.312 0.183,7.263c0.122,1.95 0.444,4.031 0.966,6.243c0.523,2.212 1.245,3.98 2.168,5.303c0.923,1.324 2.23,2.421 3.919,3.292c1.689,0.87 3.735,1.306 6.139,1.306c2.403,0 4.449,-0.436 6.139,-1.306c1.689,-0.871 2.995,-1.968 3.918,-3.292c0.923,-1.323 1.646,-3.091 2.168,-5.303c0.523,-2.212 0.845,-4.293 0.967,-6.243c0.122,-1.951 0.183,-4.372 0.183,-7.263l0,-60.187l13.375,0l0,60.187c0,4.285 -0.261,8.125 -0.784,11.521c-0.522,3.396 -1.411,6.557 -2.665,9.482c-1.253,2.926 -2.882,5.356 -4.885,7.289c-2.002,1.933 -4.554,3.439 -7.654,4.519c-3.1,1.08 -6.687,1.62 -10.762,1.62Z" style="fill-rule:nonzero;"/><path d="M610.966,174.565c-8.429,0 -14.864,-2.473 -19.305,-7.419c-4.441,-4.945 -6.922,-11.703 -7.445,-20.271l13.375,-3.344c0.662,13.375 5.12,20.063 13.375,20.063c6.688,0 10.031,-3.344 10.031,-10.031c0,-1.986 -0.269,-3.823 -0.809,-5.512c-0.54,-1.69 -1.367,-3.24 -2.482,-4.65c-1.115,-1.411 -2.125,-2.543 -3.03,-3.396c-0.906,-0.854 -2.142,-1.907 -3.71,-3.161l-16.719,-13.375c-3.065,-2.404 -5.511,-5.46 -7.34,-9.169c-1.829,-3.71 -2.743,-7.933 -2.743,-12.67c0,-6.897 2.142,-12.382 6.426,-16.458c4.284,-4.075 9.962,-6.112 17.032,-6.112c7.594,0 13.628,1.854 18.104,5.564c4.475,3.709 7.236,8.96 8.281,15.752c0.104,0.731 0.226,1.742 0.365,3.03l-13.375,3.344c-0.034,-0.592 -0.121,-1.48 -0.261,-2.665c-0.592,-4.249 -1.924,-7.654 -3.997,-10.214c-2.072,-2.56 -5.111,-3.84 -9.117,-3.84c-3.204,0 -5.677,0.897 -7.418,2.691c-1.742,1.794 -2.613,4.293 -2.613,7.497c0,5.26 2.229,9.666 6.688,13.219l16.718,13.374c8.917,7.21 13.375,15.831 13.375,25.862c0,6.862 -2.116,12.226 -6.347,16.092c-4.232,3.866 -9.918,5.799 -17.059,5.799Z" style="fill-rule:nonzero;"/><path d="M644.142,173.625l0,-93.625l13.375,0l0,40.125l20.063,-40.125l16.719,0l-20.115,36.781l23.458,56.844l-16.718,0l-16.719,-43.469l-6.688,13.375l0,30.094l-13.375,0Z" style="fill-rule:nonzero;"/><path d="M702.554,173.625l0,-93.625l36.781,0l0,10.031l-23.406,0l0,30.094l16.718,0l0,10.031l-16.718,0l0,33.438l23.406,0l0,10.031l-36.781,0Z" style="fill-rule:nonzero;"/><path d="M757.517,173.625l0,-81.713l-16.719,0l0,-11.912l46.812,0l0,11.912l-16.718,0l0,81.713l-13.375,0Z" style="fill-rule:nonzero;"/><path d="M794.246,173.625l0,-93.625l36.781,0l0,10.031l-23.406,0l0,30.094l16.718,0l0,10.031l-16.718,0l0,33.438l23.406,0l0,10.031l-36.781,0Z" style="fill-rule:nonzero;"/><path d="M839.229,173.625l0,-93.625l36.782,0l0,10.031l-23.407,0l0,30.094l16.719,0l0,10.031l-16.719,0l0,33.438l23.407,0l0,10.031l-36.782,0Z" style="fill-rule:nonzero;"/><path d="M897.588,120.125l3.344,0c5.573,0 9.753,-1.176 12.539,-3.527c2.787,-2.351 4.18,-6.191 4.18,-11.52c0,-5.329 -1.393,-9.169 -4.18,-11.52c-2.786,-2.351 -6.966,-3.527 -12.539,-3.527l-3.344,0l0,30.094Zm-13.375,53.5l0,-93.625l16.719,0c9.962,0 17.468,1.933 22.518,5.799c5.051,3.867 7.576,10.293 7.576,19.279c0,5.573 -0.993,10.24 -2.978,14.002c-1.986,3.762 -4.894,6.339 -8.725,7.732l15.047,46.813l-13.271,0l-13.479,-43.469l-10.032,0l0,43.469l-13.375,0Z" style="fill-rule:nonzero;"/></svg>