<?xml version="1.0" encoding="UTF-8" standalone="no"?>
<!DOCTYPE svg PUBLIC "-//W3C//DTD SVG 1.1//EN" "http://www.w3.org/Graphics/SVG/1.1/DTD/svg11.dtd">
<svg width="100%" height="100%" viewBox="0 0 738 139" version="1.1" xmlns="http://www.w3.org/2000/svg" xmlns:xlink="http://www.w3.org/1999/xlink" xml:space="preserve" style="fill-rule:evenodd;clip-rule:evenodd;stroke-linejoin:round;stroke-miterlimit:1.41421;">
    <g transform="matrix(1,0,0,1,-196.882,-56.7567)">
        <g transform="matrix(0.701108,0,0,0.701108,133.798,38.5794)">
            <g transform="matrix(0.951811,0,0,1.06221,12.8587,-7.84247)">
                <path d="M409.621,39.201L409.621,210.924L89.292,210.924L89.292,39.201L409.621,39.201ZM100.588,49.323L100.588,200.803L398.325,200.803L398.325,49.323L100.588,49.323Z"/>
            </g>
            <g transform="matrix(0.946486,0,0,0.946486,13.3943,6.68928)">
                <path d="M255.974,34.32L255.974,119.32L332.327,119.32L332.327,215.68L320.967,215.68L320.967,130.68L255.974,130.68L255.974,218.032L244.614,218.032L244.614,34.32L255.974,34.32Z"/>
            </g>
        </g>
        <g transform="matrix(8.91906,0,0,8.91906,-3668.25,-961.127)">
            <path d="M461.091,127.228L461.091,116.731L463.164,116.731L464.652,124.767L466.14,116.731L468.214,116.731L468.214,127.228L466.714,127.228L466.714,118.945L465.215,127.228L464.09,127.228L462.59,118.945L462.59,127.228L461.091,127.228Z" style="fill-rule:nonzero;"/>
            <path d="M472.631,127.339C472.174,127.339 471.771,127.279 471.424,127.157C471.076,127.036 470.79,126.867 470.566,126.651C470.341,126.434 470.159,126.162 470.018,125.834C469.877,125.506 469.778,125.151 469.719,124.77C469.661,124.39 469.631,123.959 469.631,123.479L469.631,116.731L471.131,116.731L471.131,123.479C471.131,123.803 471.138,124.074 471.151,124.293C471.165,124.512 471.201,124.745 471.26,124.993C471.318,125.241 471.399,125.439 471.503,125.588C471.606,125.736 471.753,125.859 471.942,125.957C472.132,126.054 472.361,126.103 472.631,126.103C472.9,126.103 473.129,126.054 473.319,125.957C473.508,125.859 473.655,125.736 473.758,125.588C473.862,125.439 473.943,125.241 474.001,124.993C474.06,124.745 474.096,124.512 474.11,124.293C474.123,124.074 474.13,123.803 474.13,123.479L474.13,116.731L475.63,116.731L475.63,123.479C475.63,123.959 475.6,124.39 475.542,124.77C475.483,125.151 475.384,125.506 475.243,125.834C475.103,126.162 474.92,126.434 474.695,126.651C474.471,126.867 474.185,127.036 473.837,127.157C473.49,127.279 473.087,127.339 472.631,127.339Z" style="fill-rule:nonzero;"/>
            <path d="M479.783,127.333C478.838,127.333 478.116,127.056 477.618,126.501C477.121,125.947 476.842,125.189 476.784,124.229L478.283,123.854C478.358,125.353 478.857,126.103 479.783,126.103C480.533,126.103 480.908,125.728 480.908,124.978C480.908,124.756 480.877,124.55 480.817,124.36C480.756,124.171 480.664,123.997 480.539,123.839C480.414,123.681 480.3,123.554 480.199,123.458C480.097,123.363 479.959,123.244 479.783,123.104L477.908,121.604C477.565,121.335 477.29,120.992 477.085,120.576C476.88,120.16 476.778,119.687 476.778,119.156C476.778,118.382 477.018,117.767 477.498,117.31C477.979,116.854 478.615,116.625 479.408,116.625C480.259,116.625 480.936,116.833 481.438,117.249C481.94,117.665 482.249,118.254 482.366,119.015C482.378,119.097 482.392,119.21 482.407,119.355L480.908,119.73C480.904,119.663 480.894,119.564 480.878,119.431C480.812,118.955 480.663,118.573 480.43,118.286C480.198,117.999 479.857,117.855 479.408,117.855C479.049,117.855 478.771,117.956 478.576,118.157C478.381,118.358 478.283,118.638 478.283,118.998C478.283,119.587 478.533,120.081 479.033,120.48L480.908,121.979C481.907,122.788 482.407,123.754 482.407,124.879C482.407,125.648 482.17,126.25 481.695,126.683C481.221,127.116 480.583,127.333 479.783,127.333Z" style="fill-rule:nonzero;"/>
            <path d="M483.503,127.228L483.503,116.731L485.002,116.731L485.002,121.229L487.252,116.731L489.126,116.731L486.871,120.854L489.501,127.228L487.627,127.228L485.752,122.354L485.002,123.854L485.002,127.228L483.503,127.228Z" style="fill-rule:nonzero;"/>
            <path d="M490.052,127.228L490.052,116.731L494.176,116.731L494.176,117.855L491.551,117.855L491.551,121.229L493.426,121.229L493.426,122.354L491.551,122.354L491.551,126.103L494.176,126.103L494.176,127.228L490.052,127.228Z" style="fill-rule:nonzero;"/>
            <path d="M496.214,127.228L496.214,118.066L494.34,118.066L494.34,116.731L499.588,116.731L499.588,118.066L497.714,118.066L497.714,127.228L496.214,127.228Z" style="fill-rule:nonzero;"/>
            <path d="M500.332,127.228L500.332,116.731L504.456,116.731L504.456,117.855L501.832,117.855L501.832,121.229L503.706,121.229L503.706,122.354L501.832,122.354L501.832,126.103L504.456,126.103L504.456,127.228L500.332,127.228Z" style="fill-rule:nonzero;"/>
            <path d="M505.376,127.228L505.376,116.731L509.5,116.731L509.5,117.855L506.875,117.855L506.875,121.229L508.75,121.229L508.75,122.354L506.875,122.354L506.875,126.103L509.5,126.103L509.5,127.228L505.376,127.228Z" style="fill-rule:nonzero;"/>
            <path d="M511.919,121.229L512.294,121.229C512.919,121.229 513.387,121.098 513.7,120.834C514.012,120.57 514.168,120.14 514.168,119.542C514.168,118.945 514.012,118.514 513.7,118.251C513.387,117.987 512.919,117.855 512.294,117.855L511.919,117.855L511.919,121.229ZM510.419,127.228L510.419,116.731L512.294,116.731C513.411,116.731 514.252,116.947 514.818,117.381C515.385,117.814 515.668,118.535 515.668,119.542C515.668,120.167 515.557,120.69 515.334,121.112C515.111,121.534 514.785,121.823 514.356,121.979L516.043,127.228L514.555,127.228L513.044,122.354L511.919,122.354L511.919,127.228L510.419,127.228Z" style="fill-rule:nonzero;"/>
        </g>
    </g>
</svg>
